<svg width="17" height="20" viewBox="0 0 17 20" fill="none" xmlns="http://www.w3.org/2000/svg">
<path d="M6.15805 11.9983L6.07639 11.9551C5.74495 11.7869 5.47115 11.5131 5.30303 11.1817L5.2598 11.1C5.09168 10.7734 4.63054 10.7734 4.46242 11.1L4.41919 11.1817C4.25107 11.5131 3.97727 11.7869 3.64583 11.9551L3.56417 11.9983C3.23754 12.1664 3.23754 12.6275 3.56417 12.7957L3.64583 12.8389C3.97727 13.007 4.25107 13.2808 4.41919 13.6123L4.46242 13.6939C4.63054 14.0205 5.09168 14.0205 5.2598 13.6939L5.30303 13.6123C5.47115 13.2808 5.74495 13.007 6.07639 12.8389L6.15805 12.7957C6.48468 12.6275 6.48468 12.1664 6.15805 11.9983Z" fill="white"/>
<path d="M8.19952 9.83192L8.27638 9.67821C8.52135 9.19787 8.90563 8.81359 9.38598 8.56861L9.53969 8.49176C10.0585 8.22757 10.3803 7.69918 10.3803 7.11796C10.3803 6.53674 10.0585 6.00836 9.53969 5.73937L9.38598 5.66251C8.90563 5.41754 8.52135 5.03326 8.27638 4.55291L8.19952 4.3992C7.93533 3.88043 7.40695 3.55859 6.82573 3.55859C6.24451 3.55859 5.71613 3.88043 5.44713 4.3992L5.37028 4.55291C5.1253 5.03326 4.74102 5.41754 4.26068 5.66251L4.10696 5.73937C3.58819 6.00356 3.26636 6.53194 3.26636 7.11796C3.26636 7.70399 3.58819 8.22756 4.10696 8.49656L4.26068 8.57341C4.74102 8.81839 5.1253 9.20267 5.37028 9.68302L5.44713 9.83673C5.71132 10.3555 6.2397 10.6773 6.82573 10.6773C7.41175 10.6773 7.93533 10.3555 8.20432 9.83673L8.19952 9.83192ZM6.99385 9.02494L6.91699 9.17865C6.91699 9.17865 6.88817 9.23629 6.82573 9.23629C6.76328 9.23629 6.73927 9.19306 6.73446 9.17865L6.65761 9.02494C6.27333 8.2708 5.6729 7.67036 4.91875 7.28609L4.76504 7.20923C4.76504 7.20923 4.7074 7.18041 4.7074 7.11796C4.7074 7.05552 4.75063 7.0315 4.76504 7.0267L4.91875 6.94984C5.6729 6.56556 6.27333 5.96513 6.65761 5.21099L6.73446 5.05728C6.73446 5.05728 6.76328 4.99963 6.82573 4.99963C6.88817 4.99963 6.91219 5.03806 6.91699 5.05728L6.99385 5.21099C7.37813 5.96513 7.97856 6.56556 8.7327 6.94984L8.88642 7.0267C8.88642 7.0267 8.94406 7.05552 8.94406 7.11796C8.94406 7.18041 8.90083 7.20443 8.88642 7.20923L8.7327 7.28609C7.97856 7.67036 7.37813 8.2708 6.99385 9.02494Z" fill="white"/>
<path d="M6.15805 15.5192L6.07639 15.476C5.74495 15.3079 5.47115 15.0341 5.30303 14.7026L5.2598 14.621C5.09168 14.2943 4.63054 14.2943 4.46242 14.621L4.41919 14.7026C4.25107 15.0341 3.97727 15.3079 3.64583 15.476L3.56417 15.5192C3.23754 15.6874 3.23754 16.1485 3.56417 16.3166L3.64583 16.3598C3.97727 16.528 4.25107 16.8018 4.41919 17.1332L4.46242 17.2149C4.63054 17.5415 5.09168 17.5415 5.2598 17.2149L5.30303 17.1332C5.47115 16.8018 5.74495 16.528 6.07639 16.3598L6.15805 16.3166C6.48468 16.1485 6.48468 15.6874 6.15805 15.5192Z" fill="white"/>
<path d="M13.1087 11.6765H7.82485C7.42616 11.6765 7.10433 11.9983 7.10433 12.397C7.10433 12.7957 7.42616 13.1175 7.82485 13.1175H13.1087C13.5074 13.1175 13.8292 12.7957 13.8292 12.397C13.8292 11.9983 13.5074 11.6765 13.1087 11.6765Z" fill="white"/>
<path d="M13.1087 15.1974H7.82485C7.42616 15.1974 7.10433 15.5192 7.10433 15.9179C7.10433 16.3166 7.42616 16.6384 7.82485 16.6384H13.1087C13.5074 16.6384 13.8292 16.3166 13.8292 15.9179C13.8292 15.5192 13.5074 15.1974 13.1087 15.1974Z" fill="white"/>
<path d="M13.1087 8.15071H11.6676C11.2689 8.15071 10.9471 8.47254 10.9471 8.87123C10.9471 9.26992 11.2689 9.59175 11.6676 9.59175H13.1087C13.5074 9.59175 13.8292 9.26992 13.8292 8.87123C13.8292 8.47254 13.5074 8.15071 13.1087 8.15071Z" fill="white"/>
<path d="M13.1087 4.62977H11.6676C11.2689 4.62977 10.9471 4.9516 10.9471 5.35029C10.9471 5.74898 11.2689 6.07081 11.6676 6.07081H13.1087C13.5074 6.07081 13.8292 5.74898 13.8292 5.35029C13.8292 4.9516 13.5074 4.62977 13.1087 4.62977Z" fill="white"/>
<rect x="0.30303" y="0.303519" width="16.3636" height="19.3939" rx="4.4697" stroke="white" stroke-width="0.606061"/>
</svg>
