<svg width="25" height="31" viewBox="0 0 25 31" fill="none" xmlns="http://www.w3.org/2000/svg">
<path d="M5.63889 22.7778L0.75 17.8889M0.75 17.8889L5.63889 13M0.75 17.8889H16.6389C20.014 17.8889 22.75 20.6249 22.75 24C22.75 27.3751 20.014 30.1111 16.6389 30.1111H10.5278" stroke="white" stroke-width="1.5" stroke-linecap="round" stroke-linejoin="round"/>
<path d="M11.2549 4.3502L12.92 3.72579H13.7635V11.394H12.7009V4.87603L11.2549 5.4128V4.3502ZM18.5271 3.58338C20.707 3.58338 21.9559 5.19371 21.9559 7.55992C21.9559 9.93707 20.707 11.5474 18.5271 11.5474C16.3361 11.5474 15.0983 9.93707 15.0983 7.55992C15.0983 5.19371 16.3361 3.58338 18.5271 3.58338ZM18.5271 10.6163C20.0169 10.6163 20.8714 9.37839 20.8714 7.55992C20.8714 5.74144 20.0169 4.51452 18.5271 4.51452C17.0263 4.51452 16.1828 5.74144 16.1828 7.55992C16.1828 9.37839 17.0263 10.6163 18.5271 10.6163Z" fill="white"/>
</svg>
