<svg width="16" height="16" viewBox="0 0 16 16" fill="none" xmlns="http://www.w3.org/2000/svg">
<path fill-rule="evenodd" clip-rule="evenodd" d="M6.04376 6.26564C6.26632 6.11727 6.4 5.86748 6.4 5.6L6.4 2.4C6.4 1.07452 5.32548 0 4 0L0.8 0C0.358172 0 0 0.358172 0 0.8C0 8.7529 7.2471 16 15.2 16C15.6418 16 16 15.6418 16 15.2V12C16 10.6745 14.9255 9.6 13.6 9.6H10.4C10.1325 9.6 9.88273 9.73368 9.73436 9.95624L8.21008 12.2427C6.54991 11.1692 5.0954 9.75134 3.97659 8.11917L3.75735 7.78992L6.04376 6.26564ZM10.828 11.2H13.5998C14.0417 11.2 14.3998 11.5582 14.3998 12V14.3723C12.85 14.265 11.3376 13.8505 9.92684 13.1933L9.60312 13.0373L10.828 11.2ZM1.62812 1.60156L4.00039 1.60156C4.44221 1.60156 4.80039 1.95973 4.80039 2.40156L4.80039 5.17342L2.96309 6.39828C2.21545 4.89632 1.74361 3.27057 1.62812 1.60156Z" fill="white"/>
</svg>
