<svg width="12" height="15" viewBox="0 0 12 15" fill="none" xmlns="http://www.w3.org/2000/svg">
<g filter="url(#filter0_d_1_608)">
<path d="M7.5 6C6.90326 6 6.33097 5.76295 5.90901 5.34099C5.48705 4.91903 5.25 4.34674 5.25 3.75V0.75H2.25C1.85218 0.75 1.47064 0.908035 1.18934 1.18934C0.908035 1.47064 0.75 1.85218 0.75 2.25V12C0.75 12.3978 0.908035 12.7794 1.18934 13.0607C1.47064 13.342 1.85218 13.5 2.25 13.5H9C9.39782 13.5 9.77936 13.342 10.0607 13.0607C10.342 12.7794 10.5 12.3978 10.5 12V6H7.5ZM6 3.75C6 4.14782 6.15804 4.52936 6.43934 4.81066C6.72064 5.09196 7.10218 5.25 7.5 5.25H10.1925L6 1.0575V3.75ZM2.25 0H6L11.25 5.25V12C11.25 12.5967 11.0129 13.169 10.591 13.591C10.169 14.0129 9.59674 14.25 9 14.25H2.25C1.65326 14.25 1.08097 14.0129 0.65901 13.591C0.237053 13.169 0 12.5967 0 12V2.25C0 1.65326 0.237053 1.08097 0.65901 0.65901C1.08097 0.237053 1.65326 0 2.25 0Z" fill="white"/>
</g>
<defs>
<filter id="filter0_d_1_608" x="-4" y="0" width="19.25" height="22.25" filterUnits="userSpaceOnUse" color-interpolation-filters="sRGB">
<feFlood flood-opacity="0" result="BackgroundImageFix"/>
<feColorMatrix in="SourceAlpha" type="matrix" values="0 0 0 0 0 0 0 0 0 0 0 0 0 0 0 0 0 0 127 0" result="hardAlpha"/>
<feOffset dy="4"/>
<feGaussianBlur stdDeviation="2"/>
<feComposite in2="hardAlpha" operator="out"/>
<feColorMatrix type="matrix" values="0 0 0 0 0 0 0 0 0 0 0 0 0 0 0 0 0 0 0.25 0"/>
<feBlend mode="normal" in2="BackgroundImageFix" result="effect1_dropShadow_1_608"/>
<feBlend mode="normal" in="SourceGraphic" in2="effect1_dropShadow_1_608" result="shape"/>
</filter>
</defs>
</svg>
