<svg width="24" height="31" viewBox="0 0 24 31" fill="none" xmlns="http://www.w3.org/2000/svg">
<path d="M17.8611 22.7778L22.75 17.8889M22.75 17.8889L17.8611 13M22.75 17.8889H6.86111C3.48604 17.8889 0.75 20.6249 0.75 24C0.75 27.3751 3.48604 30.1111 6.86111 30.1111H12.9722" stroke="white" stroke-width="1.5" stroke-linecap="round" stroke-linejoin="round"/>
<path d="M1.25391 4.35069L2.91902 3.72628H3.76253V11.3945H2.69993V4.87651L1.25391 5.41329V4.35069ZM8.52609 3.58387C10.7061 3.58387 11.9549 5.1942 11.9549 7.5604C11.9549 9.93756 10.7061 11.5479 8.52609 11.5479C6.33516 11.5479 5.09728 9.93756 5.09728 7.5604C5.09728 5.1942 6.33516 3.58387 8.52609 3.58387ZM8.52609 10.6168C10.0159 10.6168 10.8704 9.37888 10.8704 7.5604C10.8704 5.74193 10.0159 4.51501 8.52609 4.51501C7.0253 4.51501 6.18179 5.74193 6.18179 7.5604C6.18179 9.37888 7.0253 10.6168 8.52609 10.6168Z" fill="white"/>
</svg>
