<svg width="18" height="18" viewBox="0 0 18 18" fill="none" xmlns="http://www.w3.org/2000/svg">
<path d="M14.625 2.3125C15.8331 2.3125 16.8125 3.29188 16.8125 4.5V13.5C16.8125 14.7081 15.8331 15.6875 14.625 15.6875H3.375C2.16688 15.6875 1.1875 14.7081 1.1875 13.5V4.5C1.1875 3.29188 2.16688 2.3125 3.375 2.3125H14.625ZM12.9785 11.0225C12.8228 11.0297 12.6756 11.0948 12.5654 11.2051H12.5645L9.08301 14.6875H14.625C15.2808 14.6875 15.8125 14.1558 15.8125 13.5V13.1719L13.4072 11.166L13.3115 11.1006C13.2106 11.0444 13.0954 11.017 12.9785 11.0225ZM6.72363 8.79492C6.60424 8.79138 6.48705 8.82263 6.38574 8.88281L6.29004 8.95215L2.1875 12.5996V13.5C2.1875 14.1558 2.71916 14.6875 3.375 14.6875H7.66797L10.2646 12.0898L7.14746 8.97852L7.14648 8.97754C7.03391 8.86515 6.88264 8.79971 6.72363 8.79492ZM3.375 3.3125C2.71916 3.3125 2.1875 3.84416 2.1875 4.5V11.2617L5.62598 8.20508C5.93576 7.93005 6.33886 7.78363 6.75293 7.7959C7.16689 7.80817 7.56059 7.97776 7.85352 8.27051L10.9717 11.3828L11.8574 10.498C12.1438 10.2113 12.5277 10.0422 12.9326 10.0234C13.2869 10.0071 13.6354 10.1068 13.9258 10.3057L14.0469 10.3975L15.8125 11.8691V4.5C15.8125 3.84416 15.2808 3.3125 14.625 3.3125H3.375ZM11.8125 4.5625C12.71 4.5625 13.4375 5.29004 13.4375 6.1875C13.4375 7.08496 12.71 7.8125 11.8125 7.8125C10.915 7.8125 10.1875 7.08496 10.1875 6.1875C10.1875 5.29004 10.915 4.5625 11.8125 4.5625ZM11.8125 5.5625C11.4673 5.5625 11.1875 5.84232 11.1875 6.1875C11.1875 6.53268 11.4673 6.8125 11.8125 6.8125C12.1577 6.8125 12.4375 6.53268 12.4375 6.1875C12.4375 5.84232 12.1577 5.5625 11.8125 5.5625Z" fill="white"/>
</svg>
