<svg width="20" height="20" viewBox="0 0 20 20" fill="none" xmlns="http://www.w3.org/2000/svg">
<path d="M2 15.492C2 14.2087 2 13.567 2.28917 13.0954C2.45083 12.8312 2.6725 12.6095 2.93667 12.4479C3.4075 12.1587 4.05 12.1587 5.33333 12.1587C6.61667 12.1587 7.25833 12.1587 7.73 12.4479C7.99417 12.6095 8.21583 12.8312 8.3775 13.0954C8.66667 13.5662 8.66667 14.2087 8.66667 15.492C8.66667 16.7754 8.66667 17.417 8.3775 17.8895C8.21583 18.1529 7.99417 18.3745 7.73 18.5362C7.25917 18.8254 6.61667 18.8254 5.33333 18.8254C4.05 18.8254 3.40833 18.8254 2.93667 18.5362C2.67279 18.3748 2.4509 18.1532 2.28917 17.8895C2 17.417 2 16.7754 2 15.492ZM12 15.492C12 14.2087 12 13.567 12.2892 13.0954C12.4508 12.8312 12.6725 12.6095 12.9367 12.4479C13.4075 12.1587 14.05 12.1587 15.3333 12.1587C16.6167 12.1587 17.2583 12.1587 17.7308 12.4479C17.9942 12.6095 18.2158 12.8312 18.3775 13.0954C18.6667 13.5662 18.6667 14.2087 18.6667 15.492C18.6667 16.7754 18.6667 17.417 18.3775 17.8895C18.2158 18.1529 17.9942 18.3744 17.7308 18.5362C17.2583 18.8254 16.6167 18.8254 15.3333 18.8254C14.05 18.8254 13.4083 18.8254 12.9367 18.5362C12.6728 18.3748 12.4509 18.1532 12.2892 17.8895C12 17.417 12 16.7754 12 15.492ZM2 5.49202C2 4.20869 2 3.56702 2.28917 3.09536C2.45083 2.83119 2.6725 2.60952 2.93667 2.44786C3.4075 2.15869 4.05 2.15869 5.33333 2.15869C6.61667 2.15869 7.25833 2.15869 7.73 2.44786C7.99417 2.60952 8.21583 2.83119 8.3775 3.09536C8.66667 3.56619 8.66667 4.20869 8.66667 5.49202C8.66667 6.77536 8.66667 7.41702 8.3775 7.88869C8.21583 8.15286 7.99417 8.37452 7.73 8.53619C7.25917 8.82536 6.61667 8.82536 5.33333 8.82536C4.05 8.82536 3.40833 8.82536 2.93667 8.53619C2.6727 8.37456 2.4508 8.15266 2.28917 7.88869C2 7.41786 2 6.77536 2 5.49202ZM12 5.49202C12 4.20869 12 3.56702 12.2892 3.09536C12.4508 2.83119 12.6725 2.60952 12.9367 2.44786C13.4075 2.15869 14.05 2.15869 15.3333 2.15869C16.6167 2.15869 17.2583 2.15869 17.7308 2.44786C17.9942 2.60952 18.2158 2.83119 18.3775 3.09536C18.6667 3.56619 18.6667 4.20869 18.6667 5.49202C18.6667 6.77536 18.6667 7.41702 18.3775 7.88869C18.2158 8.15286 17.9942 8.37452 17.7308 8.53619C17.2583 8.82536 16.6167 8.82536 15.3333 8.82536C14.05 8.82536 13.4083 8.82536 12.9367 8.53619C12.6727 8.37456 12.4508 8.15266 12.2892 7.88869C12 7.41786 12 6.77536 12 5.49202Z" stroke="white"/>
</svg>
