<svg width="21" height="21" viewBox="0 0 21 21" fill="none" xmlns="http://www.w3.org/2000/svg">
<path d="M16.1731 9.36133H4.25699C3.31683 9.36133 2.55469 10.1235 2.55469 11.0636V17.0217C2.55469 17.9618 3.31683 18.724 4.25699 18.724H16.1731C17.1133 18.724 17.8754 17.9618 17.8754 17.0217V11.0636C17.8754 10.1235 17.1133 9.36133 16.1731 9.36133Z" stroke="white" stroke-width="1.7023" stroke-linecap="round" stroke-linejoin="round"/>
<path d="M5.96094 9.36153V5.95693C5.96094 4.82823 6.40931 3.74576 7.20742 2.94765C8.00553 2.14954 9.088 1.70117 10.2167 1.70117C11.3454 1.70117 12.4279 2.14954 13.226 2.94765C14.0241 3.74576 14.4725 4.82823 14.4725 5.95693V9.36153" stroke="white" stroke-width="1.7023" stroke-linecap="round" stroke-linejoin="round"/>
</svg>
