<svg width="30" height="30" viewBox="0 0 30 30" fill="none" xmlns="http://www.w3.org/2000/svg">
<path d="M6.15918 6.1655C6.15905 5.73185 6.27335 5.30584 6.49052 4.93049C6.7077 4.55514 7.02007 4.24374 7.39609 4.02772C7.77211 3.81171 8.19847 3.69874 8.63212 3.70021C9.06577 3.70168 9.49135 3.81755 9.8659 4.03611L24.6496 12.6597C25.0227 12.8761 25.3325 13.1868 25.5479 13.5605C25.7633 13.9342 25.8769 14.3579 25.8773 14.7892C25.8777 15.2206 25.7648 15.6445 25.55 16.0185C25.3353 16.3926 25.0261 16.7038 24.6533 16.9209L9.8659 25.5469C9.49135 25.7655 9.06577 25.8813 8.63212 25.8828C8.19847 25.8843 7.77211 25.7713 7.39609 25.5553C7.02007 25.3393 6.7077 25.0279 6.49052 24.6525C6.27335 24.2772 6.15905 23.8512 6.15918 23.4175V6.1655Z" fill="url(#paint0_linear_1_1061)"/>
<defs>
<linearGradient id="paint0_linear_1_1061" x1="16.011" y1="3.7002" x2="17.6816" y2="25.7574" gradientUnits="userSpaceOnUse">
<stop stop-color="white"/>
<stop offset="1" stop-color="#999999"/>
</linearGradient>
</defs>
</svg>
