<svg width="20" height="20" viewBox="0 0 20 20" fill="none" xmlns="http://www.w3.org/2000/svg">
<path d="M11.3335 13.992H3.8335M15.5002 5.65869H8.00016" stroke="white" stroke-linecap="round" stroke-linejoin="round"/>
<path d="M13.8335 16.4922C15.2142 16.4922 16.3335 15.3729 16.3335 13.9922C16.3335 12.6115 15.2142 11.4922 13.8335 11.4922C12.4528 11.4922 11.3335 12.6115 11.3335 13.9922C11.3335 15.3729 12.4528 16.4922 13.8335 16.4922Z" stroke="white" stroke-linecap="round" stroke-linejoin="round"/>
<path d="M5.5 8.15869C6.88071 8.15869 8 7.0394 8 5.65869C8 4.27798 6.88071 3.15869 5.5 3.15869C4.11929 3.15869 3 4.27798 3 5.65869C3 7.0394 4.11929 8.15869 5.5 8.15869Z" stroke="white" stroke-linecap="round" stroke-linejoin="round"/>
</svg>
