<svg width="18" height="18" viewBox="0 0 18 18" fill="none" xmlns="http://www.w3.org/2000/svg">
<path d="M8.97986 0.646522C8.78459 0.45126 8.46801 0.45126 8.27275 0.646522L6.27275 2.64652C6.17898 2.74029 6.0518 2.79297 5.9192 2.79297H3.29297C3.01683 2.79297 2.79297 3.01683 2.79297 3.29297V5.9192C2.79297 6.0518 2.74029 6.17898 2.64652 6.27275L0.646522 8.27275C0.45126 8.46801 0.45126 8.78459 0.646522 8.97986L2.64652 10.9799C2.74029 11.0736 2.79297 11.2008 2.79297 11.3334V13.9596C2.79297 14.2358 3.01683 14.4596 3.29297 14.4596H5.9192C6.0518 14.4596 6.17898 14.5123 6.27275 14.6061L8.27275 16.6061C8.46801 16.8013 8.78459 16.8013 8.97986 16.6061L10.9799 14.6061C11.0736 14.5123 11.2008 14.4596 11.3334 14.4596H13.9596C14.2358 14.4596 14.4596 14.2358 14.4596 13.9596V11.3334C14.4596 11.2008 14.5123 11.0736 14.6061 10.9799L16.6061 8.97986C16.8013 8.78459 16.8013 8.46801 16.6061 8.27275L14.6061 6.27275C14.5123 6.17898 14.4596 6.0518 14.4596 5.9192V3.29297C14.4596 3.01683 14.2358 2.79297 13.9596 2.79297H11.3334C11.2008 2.79297 11.0736 2.74029 10.9799 2.64652L8.97986 0.646522Z" stroke="white" stroke-linejoin="round"/>
<path d="M8.62622 11.1265C9.28926 11.1265 9.92515 10.8631 10.394 10.3942C10.8628 9.92539 11.1262 9.28951 11.1262 8.62646C11.1262 7.96342 10.8628 7.32754 10.394 6.8587C9.92515 6.38986 9.28926 6.12646 8.62622 6.12646C7.96318 6.12646 7.32729 6.38986 6.85845 6.8587C6.38961 7.32754 6.12622 7.96342 6.12622 8.62646C6.12622 9.28951 6.38961 9.92539 6.85845 10.3942C7.32729 10.8631 7.96318 11.1265 8.62622 11.1265Z" stroke="white" stroke-linejoin="round"/>
</svg>
