<svg width="24" height="26" viewBox="0 0 24 26" fill="none" xmlns="http://www.w3.org/2000/svg">
<g filter="url(#filter0_d_160_883)">
<path d="M4.70825 10.8335H7.77492C8.04924 10.8335 8.31933 10.9011 8.56122 11.0305C8.80312 11.1599 9.00934 11.347 9.16159 11.5752L9.83825 12.5918C9.9905 12.82 10.1967 13.0071 10.4386 13.1365C10.6805 13.2659 10.9506 13.3335 11.2249 13.3335H12.7749C13.0492 13.3335 13.3193 13.2659 13.5612 13.1365C13.8031 13.0071 14.0093 12.82 14.1616 12.5918L14.8383 11.5752C14.9905 11.347 15.1967 11.1599 15.4386 11.0305C15.6805 10.9011 15.9506 10.8335 16.2249 10.8335H19.2916" stroke="white" stroke-linecap="round" stroke-linejoin="round"/>
<path d="M9.5 7.91667H14.5M10.75 5.41667H13.25M6.54167 3.425L4.74 9.96417C4.58089 10.541 4.50017 11.1366 4.5 11.735V15.8333C4.5 16.2754 4.67559 16.6993 4.98816 17.0118C5.30072 17.3244 5.72464 17.5 6.16667 17.5H17.8333C18.2754 17.5 18.6993 17.3244 19.0118 17.0118C19.3244 16.6993 19.5 16.2754 19.5 15.8333V11.735C19.4998 11.1366 19.4191 10.541 19.26 9.96417L17.4583 3.425C17.3204 3.14732 17.1076 2.91364 16.8441 2.75023C16.5806 2.58682 16.2767 2.50016 15.9667 2.5H8.03333C7.72326 2.50016 7.41939 2.58682 7.15587 2.75023C6.89235 2.91364 6.67965 3.14732 6.54167 3.425Z" stroke="white" stroke-linecap="round" stroke-linejoin="round"/>
</g>
<defs>
<filter id="filter0_d_160_883" x="-2" y="0" width="28" height="28" filterUnits="userSpaceOnUse" color-interpolation-filters="sRGB">
<feFlood flood-opacity="0" result="BackgroundImageFix"/>
<feColorMatrix in="SourceAlpha" type="matrix" values="0 0 0 0 0 0 0 0 0 0 0 0 0 0 0 0 0 0 127 0" result="hardAlpha"/>
<feOffset dy="4"/>
<feGaussianBlur stdDeviation="2"/>
<feComposite in2="hardAlpha" operator="out"/>
<feColorMatrix type="matrix" values="0 0 0 0 0 0 0 0 0 0 0 0 0 0 0 0 0 0 0.25 0"/>
<feBlend mode="normal" in2="BackgroundImageFix" result="effect1_dropShadow_160_883"/>
<feBlend mode="normal" in="SourceGraphic" in2="effect1_dropShadow_160_883" result="shape"/>
</filter>
</defs>
</svg>
