<svg width="18" height="18" viewBox="0 0 18 18" fill="none" xmlns="http://www.w3.org/2000/svg">
<path d="M16.667 8.83301C16.6668 4.5068 13.1593 1 8.83301 1C4.50691 1.00018 1.00018 4.50691 1 8.83301C1 10.2602 1.38175 11.5983 2.04785 12.749C2.10767 12.8524 2.1283 12.9744 2.10645 13.0918L1.54102 16.125L4.5752 15.5605L4.66309 15.5518C4.75166 15.5511 4.8394 15.5743 4.91699 15.6191C6.10703 16.3073 7.45831 16.6689 8.83301 16.667C13.1594 16.667 16.667 13.1594 16.667 8.83301ZM8.33301 11.333V9.33301H6.33301C6.05702 9.33283 5.83301 9.10904 5.83301 8.83301C5.83318 8.55712 6.05712 8.33318 6.33301 8.33301H8.33301V6.33301C8.33318 6.05712 8.55712 5.83318 8.83301 5.83301C9.10904 5.83301 9.33283 6.05702 9.33301 6.33301V8.33301H11.333C11.609 8.33301 11.8328 8.55702 11.833 8.83301C11.833 9.10915 11.6092 9.33301 11.333 9.33301H9.33301V11.333C9.33301 11.6092 9.10915 11.833 8.83301 11.833C8.55702 11.8328 8.33301 11.609 8.33301 11.333ZM17.667 8.83301C17.667 13.7116 13.7116 17.666 8.83301 17.666C7.34479 17.6679 5.88215 17.2917 4.58008 16.5752L1.00781 17.2412C0.845948 17.2712 0.679942 17.2199 0.563477 17.1035C0.446927 16.987 0.394629 16.8202 0.424805 16.6582L1.08984 13.085C0.395507 11.8236 0 10.373 0 8.83301C0.000176253 3.95462 3.95462 0.000175734 8.83301 0C13.7115 0 17.6668 3.95452 17.667 8.83301Z" fill="white"/>
</svg>
