<svg width="212" height="35" viewBox="0 0 212 35" fill="none" xmlns="http://www.w3.org/2000/svg">
<path d="M12.7002 1.75146C13.1899 1.46887 13.7935 1.46876 14.2832 1.75146L20.0176 5.06299C20.5072 5.34567 20.8094 5.86777 20.8096 6.43311V12.9946C20.8095 13.5604 20.5068 14.0831 20.0166 14.3657L13.5439 18.0962L20.8154 22.2944L15.3809 25.4321C14.8912 25.7149 14.2876 25.7148 13.7979 25.4321L0 17.4663L5.39844 14.3149C5.88912 14.0286 6.49627 14.028 6.98828 14.312L13.5439 18.0962V10.2319C13.5439 9.94927 13.3932 9.68773 13.1484 9.54639L6.17285 5.52002L12.7002 1.75146Z" fill="white"/>
<path d="M34.5232 26.0918V1.0918" stroke="white" stroke-width="2.18335" stroke-linecap="round"/>
<g filter="url(#filter0_d_91_9)">
<path d="M48.2312 6.9563H57.2932C61.0567 6.9563 62.6661 9.2837 62.6661 11.9577C62.6661 14.0376 61.6757 16.2659 59.1255 16.984L63.0127 23.6691H59.7692L55.9562 17.2068H51.5985C51.3262 17.2068 51.1776 17.3306 51.1776 17.6277V23.6691H48.256V17.0582C48.256 15.1765 49.0483 14.409 50.8805 14.409H57.3923C59.0512 14.409 59.7197 13.27 59.7197 12.0815C59.7197 10.8931 59.0017 9.87794 57.3923 9.87794H48.2312V6.9563Z" fill="white"/>
<path d="M67.9904 6.9563H71.531L76.2106 14.1118L80.9397 6.9563H84.406L77.6714 16.464V23.6691H74.725V16.464L67.9904 6.9563Z" fill="white"/>
<path d="M90.6451 6.9563H93.8638L98.9396 20.4008C99.0881 20.7969 99.3605 20.9703 99.7566 20.9703C100.153 20.9703 100.4 20.7969 100.574 20.4008L105.897 6.9563H109.141L103.248 21.8121C102.629 23.372 101.49 23.9662 99.7566 23.9662C98.1225 23.9662 96.8598 23.4462 96.2408 21.8121L90.6451 6.9563Z" fill="white"/>
<path d="M122.538 6.9563H124.816C129.669 6.9563 132.368 9.72938 132.368 15.3498C132.368 20.9455 129.694 23.6691 124.816 23.6691H122.538C117.661 23.6691 114.987 20.9455 114.987 15.3498C114.987 9.72938 117.686 6.9563 122.538 6.9563ZM124.816 9.87794H122.538C119.32 9.87794 117.908 11.5121 117.908 15.3498C117.908 19.1628 119.295 20.7474 122.538 20.7474H124.816C128.035 20.7474 129.422 19.1628 129.422 15.3251C129.422 11.5121 128.035 9.87794 124.816 9.87794Z" fill="white"/>
<path d="M143.668 10.4474V23.6691H140.747V10.2989C140.747 8.12 141.985 6.65918 144.585 6.65918C146.912 6.65918 147.952 7.84764 148.645 9.75414L153.523 20.4256C153.721 20.8217 154.043 21.1188 154.587 21.1188C155.206 21.1188 155.578 20.7474 155.578 20.178V6.9563H158.524V20.3018C158.524 22.5054 157.262 23.9662 154.687 23.9662C152.359 23.9662 151.294 22.7777 150.601 20.8712L145.724 10.1998C145.501 9.70462 145.204 9.48178 144.684 9.48178C144.015 9.48178 143.668 9.85318 143.668 10.4474Z" fill="white"/>
<path d="M185.995 10.2246L180.697 23.6691H177.478L183.346 8.81327C183.965 7.25341 185.104 6.65918 186.862 6.65918C188.595 6.65918 189.734 7.25341 190.328 8.81327L195.973 23.6691H192.73L187.654 10.2246C187.506 9.82842 187.233 9.6551 186.837 9.6551C186.441 9.6551 186.169 9.82842 185.995 10.2246Z" fill="white"/>
<path d="M203.406 6.9563H206.327V23.6691H203.406V6.9563Z" fill="white"/>
</g>
<defs>
<filter id="filter0_d_91_9" x="42.7602" y="6.65918" width="169.038" height="28.249" filterUnits="userSpaceOnUse" color-interpolation-filters="sRGB">
<feFlood flood-opacity="0" result="BackgroundImageFix"/>
<feColorMatrix in="SourceAlpha" type="matrix" values="0 0 0 0 0 0 0 0 0 0 0 0 0 0 0 0 0 0 127 0" result="hardAlpha"/>
<feOffset dy="5.47096"/>
<feGaussianBlur stdDeviation="2.73548"/>
<feComposite in2="hardAlpha" operator="out"/>
<feColorMatrix type="matrix" values="0 0 0 0 0 0 0 0 0 0 0 0 0 0 0 0 0 0 0.25 0"/>
<feBlend mode="normal" in2="BackgroundImageFix" result="effect1_dropShadow_91_9"/>
<feBlend mode="normal" in="SourceGraphic" in2="effect1_dropShadow_91_9" result="shape"/>
</filter>
</defs>
</svg>
