<svg width="21" height="25" viewBox="0 0 21 25" fill="none" xmlns="http://www.w3.org/2000/svg">
<path d="M12.7002 0.211914C13.1899 -0.0706827 13.7935 -0.0707886 14.2832 0.211914L20.0176 3.52344C20.5072 3.80612 20.8094 4.32822 20.8096 4.89355V11.4551C20.8095 12.0209 20.5068 12.5436 20.0166 12.8262L13.5439 16.5566L20.8154 20.7549L15.3809 23.8926C14.8912 24.1753 14.2876 24.1752 13.7979 23.8926L0 15.9268L5.39844 12.7754C5.88912 12.4891 6.49627 12.4884 6.98828 12.7725L13.5439 16.5566V8.69238C13.5439 8.40972 13.3932 8.14817 13.1484 8.00684L6.17285 3.98047L12.7002 0.211914Z" fill="white"/>
</svg>
