<svg width="20" height="20" viewBox="0 0 20 20" fill="none" xmlns="http://www.w3.org/2000/svg">
<path d="M13.066 3.35401C14.261 2.15401 16.0094 2.12901 16.9769 3.10068C17.9469 4.07401 17.921 5.83401 16.7244 7.03401L14.7052 9.06151C14.5915 9.17954 14.5287 9.33751 14.5304 9.50139C14.532 9.66527 14.598 9.82194 14.714 9.93766C14.8301 10.0534 14.9869 10.1189 15.1508 10.1201C15.3147 10.1213 15.4725 10.058 15.5902 9.94401L17.6102 7.91651C19.2027 6.31734 19.4027 3.76484 17.8627 2.21818C16.321 0.670676 13.7735 0.872343 12.1794 2.47151L8.14103 6.52734C6.54853 8.12651 6.34853 10.679 7.88853 12.2248C7.94605 12.2847 8.0149 12.3324 8.09107 12.3653C8.16725 12.3983 8.24921 12.4157 8.33219 12.4166C8.41516 12.4175 8.49749 12.4019 8.57437 12.3706C8.65124 12.3394 8.72112 12.2932 8.77994 12.2346C8.83876 12.1761 8.88532 12.1064 8.91693 12.0297C8.94854 11.953 8.96455 11.8707 8.96403 11.7877C8.96351 11.7047 8.94647 11.6227 8.91391 11.5464C8.88135 11.4701 8.83391 11.401 8.77437 11.3432C7.80437 10.3698 7.83103 8.60984 9.02687 7.40984L13.066 3.35401Z" fill="white"/>
<path d="M12.0295 8.00902C11.9124 7.89156 11.7534 7.82543 11.5875 7.8252C11.4216 7.82496 11.2624 7.89064 11.145 8.00777C11.0275 8.12491 10.9614 8.28392 10.9611 8.44981C10.9609 8.6157 11.0266 8.77489 11.1437 8.89236C12.1137 9.86569 12.0879 11.6249 10.8912 12.8257L6.85205 16.8807C5.65622 18.0807 3.90788 18.1057 2.94038 17.134C1.97038 16.1607 1.99705 14.4007 3.19288 13.2007L5.21288 11.1732C5.27083 11.115 5.31675 11.046 5.34803 10.9701C5.3793 10.8942 5.39532 10.8129 5.39517 10.7308C5.39501 10.6487 5.37869 10.5674 5.34713 10.4916C5.31556 10.4158 5.26938 10.347 5.21122 10.289C5.15305 10.2311 5.08404 10.1852 5.00813 10.1539C4.93222 10.1226 4.85089 10.1066 4.76879 10.1067C4.68669 10.1069 4.60542 10.1232 4.52962 10.1548C4.45383 10.1863 4.385 10.2325 4.32705 10.2907L2.30705 12.3182C0.714549 13.9182 0.514549 16.4699 2.05455 18.0165C3.59622 19.5649 6.14372 19.3624 7.73788 17.7632L11.7771 13.7074C13.3695 12.109 13.5695 9.55486 12.0295 8.00902Z" fill="white"/>
</svg>
