<svg width="14" height="14" viewBox="0 0 14 14" fill="none" xmlns="http://www.w3.org/2000/svg">
<path d="M1.02815 13.9535L0 12.9253L5.52632 7.38066L2.20318 6.55447L5.83843 4.29621L5.52632 0L8.81273 2.77234L12.7785 1.15667L11.1812 5.14076L13.9535 8.40881L9.65728 8.11506L7.38066 11.7503L6.55447 8.42717L1.02815 13.9535ZM1.46879 4.40637L0 2.93758L1.46879 1.46879L2.93758 2.93758L1.46879 4.40637ZM7.98654 8.02326L8.86781 6.57283L10.5753 6.70135L9.47369 5.3978L10.1163 3.81885L8.53733 4.46145L7.23378 3.37821L7.3623 5.06732L5.91187 5.96695L7.56426 6.37087L7.98654 8.02326ZM11.0159 13.9535L9.54712 12.4847L11.0159 11.0159L12.4847 12.4847L11.0159 13.9535Z" fill="white"/>
</svg>
