<svg width="14" height="14" viewBox="0 0 14 14" fill="none" xmlns="http://www.w3.org/2000/svg">
<path d="M0.75 11.5142V2.4475C0.75 1.69987 0.75 1.32564 0.907328 1.10444C1.04464 0.911372 1.25629 0.784613 1.49126 0.754308C1.76038 0.719597 2.09046 0.895635 2.74966 1.24721L11.2497 5.78054L11.2527 5.78191C11.9812 6.17044 12.3457 6.3648 12.4652 6.62385C12.5695 6.84983 12.5695 7.11068 12.4652 7.33666C12.3455 7.59607 11.9802 7.79122 11.2497 8.18085L2.74966 12.7142C2.08998 13.066 1.76048 13.2414 1.49126 13.2066C1.25629 13.1763 1.04464 13.0496 0.907328 12.8565C0.75 12.6353 0.75 12.2618 0.75 11.5142Z" stroke="url(#paint0_linear_25_2)" stroke-width="1.5" stroke-linecap="round" stroke-linejoin="round"/>
<defs>
<linearGradient id="paint0_linear_25_2" x1="6.6467" y1="0.75" x2="6.6467" y2="13.211" gradientUnits="userSpaceOnUse">
<stop stop-color="white"/>
<stop offset="1" stop-color="#999999"/>
</linearGradient>
</defs>
</svg>
