<svg width="360" height="158" viewBox="0 0 360 158" fill="none" xmlns="http://www.w3.org/2000/svg">
<g filter="url(#filter0_d_1_925)">
<path d="M168.663 40.5227C169.774 39.8744 171.147 39.8709 172.261 40.5139L203.555 58.5813L191.255 65.6829C190.147 66.3227 188.781 66.3225 187.673 65.6829L156.445 47.6536L168.663 40.5227ZM185.188 12.0872C186.297 11.4472 187.662 11.4473 188.771 12.0872L201.751 19.5813C202.859 20.2213 203.542 21.404 203.542 22.6838V37.5325C203.542 38.813 202.858 39.9964 201.749 40.636L187.099 49.0803V31.2805C187.099 30.6406 186.757 30.0497 186.203 29.7297L170.417 20.6155L185.188 12.0872Z" fill="white"/>
<g filter="url(#filter1_d_1_925)">
<path d="M17.3562 100.477H36.0011C43.7444 100.477 47.0557 105.266 47.0557 110.767C47.0557 115.047 45.018 119.631 39.7709 121.109L47.7689 134.863H41.0954L33.2503 121.567H24.2844C23.724 121.567 23.4184 121.822 23.4184 122.433V134.863H17.4071V121.262C17.4071 117.39 19.0373 115.811 22.807 115.811H36.2049C39.6181 115.811 40.9935 113.467 40.9935 111.022C40.9935 108.577 39.5162 106.488 36.2049 106.488H17.3562V100.477Z" fill="white"/>
<path d="M58.0103 100.477H65.2951L74.9232 115.199L84.6532 100.477H91.7852L77.9288 120.039V134.863H71.8666V120.039L58.0103 100.477Z" fill="white"/>
<path d="M104.622 100.477H111.244L121.688 128.139C121.993 128.954 122.554 129.31 123.369 129.31C124.184 129.31 124.693 128.954 125.05 128.139L136.002 100.477H142.676L130.552 131.043C129.278 134.252 126.935 135.475 123.369 135.475C120.006 135.475 117.408 134.405 116.135 131.043L104.622 100.477Z" fill="white"/>
<path d="M170.242 100.477H174.928C184.913 100.477 190.466 106.183 190.466 117.747C190.466 129.26 184.964 134.863 174.928 134.863H170.242C160.206 134.863 154.704 129.26 154.704 117.747C154.704 106.183 160.257 100.477 170.242 100.477ZM174.928 106.488H170.242C163.619 106.488 160.715 109.85 160.715 117.747C160.715 125.592 163.568 128.852 170.242 128.852H174.928C181.551 128.852 184.404 125.592 184.404 117.696C184.404 109.85 181.551 106.488 174.928 106.488Z" fill="white"/>
<path d="M213.716 107.66V134.863H207.705V107.354C207.705 102.871 210.252 99.8657 215.601 99.8657C220.39 99.8657 222.529 102.311 223.956 106.234L233.991 128.19C234.399 129.005 235.061 129.616 236.182 129.616C237.456 129.616 238.22 128.852 238.22 127.68V100.477H244.282V127.935C244.282 132.469 241.684 135.475 236.386 135.475C231.597 135.475 229.407 133.029 227.98 129.107L217.945 107.15C217.486 106.132 216.875 105.673 215.805 105.673C214.43 105.673 213.716 106.437 213.716 107.66Z" fill="white"/>
<path d="M300.803 107.201L289.901 134.863H283.279L295.352 104.298C296.626 101.088 298.969 99.8657 302.586 99.8657C306.152 99.8657 308.495 101.088 309.718 104.298L321.333 134.863H314.659L304.216 107.201C303.91 106.386 303.35 106.03 302.535 106.03C301.72 106.03 301.16 106.386 300.803 107.201Z" fill="white"/>
<path d="M336.625 100.477H342.636V134.863H336.625V100.477Z" fill="white"/>
</g>
</g>
<defs>
<filter id="filter0_d_1_925" x="-4" y="0" width="368" height="148" filterUnits="userSpaceOnUse" color-interpolation-filters="sRGB">
<feFlood flood-opacity="0" result="BackgroundImageFix"/>
<feColorMatrix in="SourceAlpha" type="matrix" values="0 0 0 0 0 0 0 0 0 0 0 0 0 0 0 0 0 0 127 0" result="hardAlpha"/>
<feOffset dy="4"/>
<feGaussianBlur stdDeviation="2"/>
<feComposite in2="hardAlpha" operator="out"/>
<feColorMatrix type="matrix" values="0 0 0 0 0 0 0 0 0 0 0 0 0 0 0 0 0 0 0.25 0"/>
<feBlend mode="normal" in2="BackgroundImageFix" result="effect1_dropShadow_1_925"/>
<feBlend mode="normal" in="SourceGraphic" in2="effect1_dropShadow_1_925" result="shape"/>
</filter>
<filter id="filter1_d_1_925" x="6.09982" y="99.8657" width="347.792" height="58.1217" filterUnits="userSpaceOnUse" color-interpolation-filters="sRGB">
<feFlood flood-opacity="0" result="BackgroundImageFix"/>
<feColorMatrix in="SourceAlpha" type="matrix" values="0 0 0 0 0 0 0 0 0 0 0 0 0 0 0 0 0 0 127 0" result="hardAlpha"/>
<feOffset dy="11.2564"/>
<feGaussianBlur stdDeviation="5.62819"/>
<feComposite in2="hardAlpha" operator="out"/>
<feColorMatrix type="matrix" values="0 0 0 0 0 0 0 0 0 0 0 0 0 0 0 0 0 0 0.25 0"/>
<feBlend mode="normal" in2="BackgroundImageFix" result="effect1_dropShadow_1_925"/>
<feBlend mode="normal" in="SourceGraphic" in2="effect1_dropShadow_1_925" result="shape"/>
</filter>
</defs>
</svg>
